<svg id="Layer_1" data-name="Layer 1" xmlns="http://www.w3.org/2000/svg" viewBox="0 0 389.37 102.22"><defs><style>.cls-1{font-size:32px;stroke:#22c6ff;stroke-miterlimit:10;stroke-width:0.75px;font-family:ElementalEnd, Elemental End;letter-spacing:0.05em;}.cls-1,.cls-4{fill:#22c6ff;}.cls-2{fill:#1b9cc9;stroke:#1b9cc9;font-size:38px;letter-spacing:0.05em;}.cls-3{fill:#43ef68;}</style></defs><title>full-logo</title><text class="cls-1" transform="translate(81.43 72.35)">DeSeR<tspan class="cls-2" x="148.63" y="0">TeCH</tspan></text><path class="cls-3" d="M24.31,29c-.16-4.27-.35-8.3-.44-12.32a45.17,45.17,0,0,1,.64-10.92,14.1,14.1,0,0,1,.62-2A5.35,5.35,0,0,1,29.8,0,5.22,5.22,0,0,1,35.3,3a20,20,0,0,1,2.1,6.87,99.16,99.16,0,0,1,.68,15.3c0,4.89.07,9.78.11,14.67,0,.26,0,.51.08,1.09.45-.74.79-1.23,1.06-1.76,1.57-3.08,2-6.47,2.56-9.86a72,72,0,0,1,1.53-8.2c.74-2.68,2.67-3.59,5.24-3a3.88,3.88,0,0,1,3.14,4,18.41,18.41,0,0,1-1.37,7.07C48,35.84,44.52,41.83,40.89,47.74a5.68,5.68,0,0,1-.54.83c-1.93,2.16-2.32,4.73-2.17,7.61.19,3.65.1,7.32.07,11,0,1.79-.19,3.58-.24,5.37,0,1.41-.69,2.38-1.94,2.52-2.29.25-4.61.3-6.92.34a5.09,5.09,0,0,1-1.82-.52,2.15,2.15,0,0,1-1.38-2c-1-9.33-.8-18.71-1-28.07a12.08,12.08,0,0,0-1.86-6.54,95.85,95.85,0,0,1-9.87-19.58,20.52,20.52,0,0,1-1.41-7.4c.09-2.94,1.81-4.71,4.57-4.71a3.41,3.41,0,0,1,3.4,2.68c.66,2.18,1.08,4.46,1.53,6.71.74,3.71,1.4,7.44,2.13,11.15A8.25,8.25,0,0,0,24,28.52,3.18,3.18,0,0,0,24.31,29Z"/><path class="cls-4" d="M31.73,102.22C17.19,102,4.55,92.48,1.07,78.7c-2.85-11.31,0-21.23,8.15-29.61A4.78,4.78,0,0,1,16.13,49,4.68,4.68,0,0,1,16,55.8,20.62,20.62,0,0,0,9.8,73.07c.92,8.34,5.45,14.32,13.11,17.71A22.07,22.07,0,0,0,53.55,74.92c1.43-7.33-.69-13.75-5.89-19.12a4.65,4.65,0,0,1-1.29-5,4.55,4.55,0,0,1,4-3.22,4.42,4.42,0,0,1,3.84,1.24,30.19,30.19,0,0,1,9.21,18.57c1.92,16.3-9.44,31.17-25.86,34.16C35.62,101.93,33.66,102,31.73,102.22Z"/></svg>