<svg id="Layer_1" data-name="Layer 1" xmlns="http://www.w3.org/2000/svg" viewBox="0 0 23.01 35.79"><defs><style>.cls-1{fill:#43ef68;}.cls-2{fill:#22c6ff;}</style></defs><title>logo_1</title><path class="cls-1" d="M8.79,9.51c-.05-1.4-.12-2.72-.15-4a14,14,0,0,1,.22-3.59,4.44,4.44,0,0,1,.22-.66A1.84,1.84,0,0,1,10.7,0a1.84,1.84,0,0,1,1.91,1,6.29,6.29,0,0,1,.73,2.26,30.79,30.79,0,0,1,.24,5c0,1.61,0,3.21,0,4.82,0,.08,0,.17,0,.36.16-.24.27-.4.37-.58a10,10,0,0,0,.89-3.24,22.47,22.47,0,0,1,.53-2.69,1.36,1.36,0,0,1,1.82-1,1.29,1.29,0,0,1,1.09,1.33,5.76,5.76,0,0,1-.48,2.32,32.54,32.54,0,0,1-3.31,6.08,1.86,1.86,0,0,1-.19.27,3.13,3.13,0,0,0-.75,2.5c.06,1.2,0,2.4,0,3.6,0,.59-.07,1.17-.08,1.76a.75.75,0,0,1-.67.83c-.8.08-1.6.1-2.41.11a1.85,1.85,0,0,1-.63-.17.71.71,0,0,1-.48-.66C9,20.86,9.08,17.78,9,14.7a3.81,3.81,0,0,0-.65-2.15A30.85,30.85,0,0,1,4.94,6.12a6.42,6.42,0,0,1-.49-2.43A1.47,1.47,0,0,1,6,2.14,1.17,1.17,0,0,1,7.22,3a22,22,0,0,1,.53,2.2c.26,1.22.49,2.44.74,3.66a2.62,2.62,0,0,0,.19.48A1.05,1.05,0,0,0,8.79,9.51Z"/><path class="cls-2" d="M11.73,35.79A11.48,11.48,0,0,1,.46,27.52,10.79,10.79,0,0,1,3.17,16.75a1.73,1.73,0,0,1,2.5-.09,1.69,1.69,0,0,1,0,2.46,7.46,7.46,0,0,0-2.1,6.3,7.57,7.57,0,0,0,4.88,6.3,8,8,0,0,0,11-6,7.45,7.45,0,0,0-2.28-6.87,1.68,1.68,0,0,1-.51-1.78A1.65,1.65,0,0,1,18,15.89a1.6,1.6,0,0,1,1.4.42A10.92,10.92,0,0,1,22.9,23a11.31,11.31,0,0,1-9.08,12.56C13.13,35.65,12.43,35.7,11.73,35.79Z"/></svg>